<svg width="11390" height="2901" viewBox="0 0 11390 2901" fill="none" xmlns="http://www.w3.org/2000/svg">
<rect y="1450" width="786" height="1451" fill="black"/>
<rect x="948" y="725" width="786" height="1451" fill="black"/>
<rect x="1896" width="786" height="1451" fill="black"/>
<path d="M3495.08 540.818H3969.15L4469.86 1762.41H4491.17L4991.88 540.818H5465.96V2359H5093.09V1175.58H5078L4607.47 2350.12H4353.56L3883.04 1171.14H3867.95V2359H3495.08V540.818ZM5775.57 2359V995.364H6153.77V2359H5775.57ZM5965.56 819.582C5909.33 819.582 5861.09 800.939 5820.85 763.652C5781.19 725.773 5761.37 680.496 5761.37 627.821C5761.37 575.738 5781.19 531.053 5820.85 493.766C5861.09 455.887 5909.33 436.947 5965.56 436.947C6021.78 436.947 6069.72 455.887 6109.38 493.766C6149.62 531.053 6169.75 575.738 6169.75 627.821C6169.75 680.496 6149.62 725.773 6109.38 763.652C6069.72 800.939 6021.78 819.582 5965.56 819.582ZM6834.92 1570.65V2359H6456.72V995.364H6817.16V1235.95H6833.14C6863.33 1156.64 6913.93 1093.91 6984.96 1047.74C7055.98 1000.99 7142.09 977.608 7243.3 977.608C7338 977.608 7420.56 998.323 7490.99 1039.75C7561.42 1081.18 7616.17 1140.37 7655.23 1217.31C7694.3 1293.66 7713.83 1384.8 7713.83 1490.75V2359H7335.63V1558.22C7336.22 1474.77 7314.92 1409.66 7271.71 1362.91C7228.5 1315.56 7169.02 1291.88 7093.27 1291.88C7042.37 1291.88 6997.38 1302.83 6958.32 1324.73C6919.85 1346.63 6889.67 1378.59 6867.77 1420.61C6846.46 1462.04 6835.51 1512.05 6834.92 1570.65ZM8737.22 995.364V1279.45H7916.02V995.364H8737.22ZM8102.45 668.659H8480.65V1939.97C8480.65 1974.89 8485.98 2002.11 8496.63 2021.64C8507.28 2040.58 8522.08 2053.9 8541.02 2061.59C8560.55 2069.29 8583.04 2073.13 8608.49 2073.13C8626.25 2073.13 8644 2071.65 8661.76 2068.69C8679.51 2065.14 8693.13 2062.48 8702.6 2060.7L8762.08 2342.13C8743.14 2348.05 8716.5 2354.86 8682.18 2362.55C8647.85 2370.84 8606.12 2375.87 8557 2377.64C8465.85 2381.19 8385.95 2369.06 8317.3 2341.24C8249.23 2313.43 8196.26 2270.22 8158.38 2211.63C8120.51 2153.03 8101.86 2079.05 8102.45 1989.68V668.659ZM9391.07 540.818V2359H9012.88V540.818H9391.07ZM9927.52 2870.36C9879.58 2870.36 9834.59 2866.52 9792.57 2858.82C9751.14 2851.72 9716.82 2842.55 9689.59 2831.3L9774.82 2548.99C9819.21 2562.6 9859.16 2570 9894.67 2571.18C9930.77 2572.36 9961.84 2564.08 9987.89 2546.32C10014.5 2528.57 10036.1 2498.38 10052.7 2455.77L10074.9 2398.06L9585.72 995.364H9983.45L10265.8 1996.78H10280L10564.9 995.364H10965.3L10435.3 2506.37C10409.9 2579.76 10375.3 2643.68 10331.5 2698.13C10288.3 2753.18 10233.5 2795.49 10167.2 2825.09C10100.9 2855.27 10021 2870.36 9927.52 2870.36Z" fill="black"/>
</svg>
